<svg xmlns="http://www.w3.org/2000/svg" width="1920" height="271" fill="none" viewBox="0 0 1920 271"><g fill="#6E6E6E" opacity=".12"><path d="M287.091 266h-66.846V114.965H218.8l-58.716 147.964h-41.011L60.357 114.965h-1.445V266H-7.934V5.302h88.526l58.354 152.119h1.446l58.173-152.12h88.526V266ZM495.396 266l-13.549-51.851h-79.493L388.805 266h-78.047L395.851 5.302h96.113L577.057 266h-81.661ZM441.378 65.463l-25.112 94.668h51.67l-25.113-94.668h-1.445ZM828.541 155.072c0 71.363-44.985 115.445-120.684 115.445-82.744 0-131.704-48.599-131.704-135.137 0-85.454 48.96-134.595 129.356-134.595 65.4 0 114.179 38.482 119.961 91.958h-75.337c-5.059-19.15-22.222-31.616-44.263-31.616-32.519 0-51.67 26.738-51.67 73.169 0 47.515 21.861 75.879 55.464 75.879 24.932 0 42.637-13.911 44.805-34.868l.361-3.614h-39.746v-50.947h113.457v34.326ZM1016.43 266l-13.55-51.851h-79.49L909.84 266h-78.047L916.886 5.302H1013L1098.09 266h-81.66ZM962.413 65.463l-25.112 94.668h51.67l-25.113-94.668h-1.445ZM1117.96 266v-48.057l116.17-150.312v-1.445h-115.08V5.302h204.33v47.876L1207.57 203.67v1.445h120.15V266h-209.76ZM1437.02 266h-76.6V5.302h76.6V266ZM1545.42 266h-72.27V5.302h59.44l100.63 135.136h1.44V5.302h72.27V266h-58.72l-101.35-137.305h-1.44V266ZM1926.98 205.116V266h-183.92V5.302h183.92v60.884h-107.32v42.094h100.63v54.922h-100.63v41.914h107.32Z"/></g></svg>