<svg xmlns="http://www.w3.org/2000/svg" width="28" height="28" fill="none" viewBox="0 0 28 28"><path fill="#000" d="M10.546 25.13c1.12.338 2.252.537 3.454.537A11.667 11.667 0 1 0 2.333 14c0 4.959 3.115 9.217 7.513 10.897-.105-.91-.21-2.415 0-3.453l1.342-5.764s-.338-.676-.338-1.75c0-1.61 1.003-2.812 2.146-2.812 1.004 0 1.47.736 1.47 1.68 0 1.004-.665 2.439-1.003 3.815-.198 1.144.607 2.147 1.773 2.147 2.077 0 3.687-2.216 3.687-5.343 0-2.8-2.007-4.713-4.888-4.713-3.29 0-5.227 2.45-5.227 5.028 0 1.003.327 2.018.863 2.683.105.07.105.163.07.338l-.338 1.272c0 .199-.128.269-.327.129-1.493-.654-2.356-2.777-2.356-4.492 0-3.687 2.613-7.035 7.653-7.035 4.013 0 7.14 2.881 7.14 6.708 0 4.014-2.485 7.233-6.043 7.233-1.132 0-2.24-.606-2.637-1.318l-.782 2.765c-.268 1.003-1.003 2.345-1.505 3.15v-.035Z"/></svg>